<svg width="20" height="21" viewBox="0 0 20 21" fill="none" xmlns="http://www.w3.org/2000/svg">
<path fill-rule="evenodd" clip-rule="evenodd" d="M9.18462 3.30003C8.22893 2.72387 7.14774 2.39114 6.03504 2.33076C4.92234 2.27037 3.81181 2.48416 2.8 2.95354C2.65319 3.0215 2.52881 3.1303 2.44157 3.26708C2.35433 3.40386 2.30787 3.5629 2.30769 3.72539V12.2838C3.68568 11.7266 5.17331 11.498 6.65392 11.6158C8.13453 11.7336 9.56787 12.1947 10.8415 12.9629L11.3708 13.283C12.2627 13.8211 13.2752 14.1242 14.3146 14.1642C15.354 14.2042 16.3867 13.9799 17.3169 13.512C17.4297 13.4552 17.5245 13.3679 17.5908 13.26C17.6571 13.1521 17.6923 13.0278 17.6923 12.901V4.21882C16.3405 4.71875 14.8945 4.90767 13.4605 4.77169C12.0265 4.6357 10.6411 4.17828 9.40615 3.43305L9.18462 3.30003ZM18.3492 15.5878C17.0718 16.2299 15.6538 16.5377 14.2267 16.4825C12.7995 16.4274 11.4093 16.0111 10.1846 15.2722L9.65385 14.952C8.66216 14.3539 7.54344 14.0009 6.38965 13.9221C5.23586 13.8433 4.07994 14.041 3.01692 14.4988L2.30769 14.8051V19.8399C2.30769 20.1476 2.18613 20.4427 1.96974 20.6602C1.75335 20.8778 1.45987 21 1.15385 21C0.847827 21 0.554342 20.8778 0.337954 20.6602C0.121566 20.4427 0 20.1476 0 19.8399V3.72539C0 2.48796 0.715385 1.36499 1.83077 0.84681C3.18436 0.218627 4.67013 -0.067474 6.1588 0.0134011C7.64746 0.0942761 9.09392 0.539677 10.3723 1.31085L10.5938 1.44387C11.6177 2.06179 12.7763 2.41864 13.9688 2.48335C15.1612 2.54805 16.3513 2.31864 17.4354 1.8151L18.3631 1.38509C18.5389 1.30361 18.7322 1.26791 18.9253 1.28126C19.1185 1.29462 19.3051 1.35661 19.4682 1.46152C19.6312 1.56644 19.7654 1.71091 19.8583 1.88163C19.9512 2.05235 20 2.24384 20 2.43846V12.901C20 14.0379 19.36 15.0789 18.3492 15.5878Z" fill="#FCFCFC"/>
</svg>
