<svg width="19" height="22" viewBox="0 0 19 22" fill="none" xmlns="http://www.w3.org/2000/svg">
<path d="M11.3303 21.3065C14.0901 18.8933 19 13.9631 19 9.43877C19 6.93545 17.9991 4.53467 16.2175 2.76455C14.4359 0.994439 12.0196 0 9.5 0C6.98044 0 4.56408 0.994439 2.78249 2.76455C1.00089 4.53467 3.75443e-08 6.93545 0 9.43877C0 13.9631 4.90833 18.8933 7.66967 21.3065C8.17335 21.7531 8.82487 22 9.5 22C10.1751 22 10.8267 21.7531 11.3303 21.3065ZM6.33333 9.43877C6.33333 8.60433 6.66696 7.80407 7.26083 7.21403C7.85469 6.62399 8.66015 6.29251 9.5 6.29251C10.3399 6.29251 11.1453 6.62399 11.7392 7.21403C12.333 7.80407 12.6667 8.60433 12.6667 9.43877C12.6667 10.2732 12.333 11.0735 11.7392 11.6635C11.1453 12.2535 10.3399 12.585 9.5 12.585C8.66015 12.585 7.85469 12.2535 7.26083 11.6635C6.66696 11.0735 6.33333 10.2732 6.33333 9.43877Z" fill="#979695" fill-opacity="0.5"/>
</svg>
