<svg width="20" height="20" viewBox="0 0 20 20" fill="none" xmlns="http://www.w3.org/2000/svg">
<path fill-rule="evenodd" clip-rule="evenodd" d="M14.7126 19.9972C13.2702 19.9441 9.18226 19.3792 4.90103 15.0999C0.620792 10.8195 0.0568381 6.73345 0.00274664 5.2903C-0.0773888 3.09104 1.60746 0.954863 3.55375 0.120623C3.78812 0.0194399 4.04478 -0.0190837 4.29854 0.00883272C4.5523 0.0367492 4.79444 0.130147 5.0012 0.27986C6.60391 1.4476 7.70977 3.21422 8.65938 4.60328C8.86832 4.90847 8.95765 5.27984 8.91036 5.64663C8.86307 6.01343 8.68246 6.35001 8.40295 6.59224L6.44864 8.0434C6.35423 8.11156 6.28776 8.21167 6.2616 8.32514C6.23544 8.4386 6.25136 8.5577 6.3064 8.66031C6.74915 9.46451 7.53648 10.6623 8.43801 11.5636C9.34053 12.465 10.5947 13.3042 11.4551 13.7969C11.563 13.8575 11.69 13.8744 11.81 13.8442C11.9299 13.8141 12.0338 13.7391 12.1002 13.6347L13.3723 11.6988C13.6062 11.3882 13.9513 11.1801 14.3352 11.1181C14.7191 11.0562 15.112 11.1451 15.4318 11.3663C16.8412 12.3418 18.486 13.4284 19.69 14.9697C19.8519 15.1779 19.9549 15.4258 19.9882 15.6874C20.0215 15.949 19.9839 16.2148 19.8793 16.4569C19.0409 18.4128 16.9193 20.0783 14.7126 19.9972Z" fill="#979695" fill-opacity="0.5"/>
</svg>
